<svg width="104" height="40" viewBox="0 0 104 40" fill="none" xmlns="http://www.w3.org/2000/svg">
<path d="M97.0842 15.4564C97.0842 22.8817 92.0067 29.0791 85.248 30.5355C84.2618 30.7499 83.2398 30.8615 82.1911 30.8615C82.0732 30.8615 81.9553 30.8597 81.8373 30.8562V30.8615H66.8656V18.7465H48.9585V17.6409C48.9585 16.2502 48.4994 14.9692 47.7311 13.9522C47.4721 13.6085 47.1755 13.2949 46.8521 13.0185C45.698 11.9272 44.1633 11.2628 42.4767 11.2628H40.0791V0H65.615V7.32603H47.7311V12.2851H74.5176V23.6205H74.5266V23.6878H81.3871C81.539 23.6878 81.689 23.6825 81.8373 23.6719C82.1679 23.6488 82.4912 23.6045 82.8057 23.5354H82.8414V23.5283C82.8718 23.5213 82.9021 23.5142 82.9343 23.5053C83.0004 23.4911 83.0647 23.4752 83.129 23.4557C83.2237 23.4327 83.3184 23.4043 83.4095 23.3742C83.4953 23.3476 83.5811 23.3175 83.665 23.2856C83.7186 23.2661 83.7722 23.2466 83.824 23.2236C85.8286 22.4405 87.3812 20.7113 87.9797 18.564C88.3048 17.6161 88.4835 16.5761 88.4835 15.4883C88.4835 11.0644 85.5267 7.46068 81.8373 7.3278C81.7677 7.32426 81.6962 7.32249 81.6247 7.32249C81.5693 7.32249 81.5157 7.32249 81.4622 7.32603V7.32249H74.5266V7.40753H74.5176V10.8571H66.8656V0.0814986H81.1173L83.8598 0.14528H83.8651C91.3027 1.00988 97.0842 7.53332 97.0842 15.4564Z" fill="url(#paint0_linear_346_410)"/>
<path d="M65.6167 23.5354V30.8614H40.0808V22.3944C40.0808 22.1269 40.0522 21.8646 39.9968 21.6131C39.8289 20.8282 39.4073 20.139 38.8302 19.6411C38.2317 19.1291 37.4616 18.8226 36.6237 18.8226H22.0647C21.6735 18.8226 21.2875 18.7978 20.9088 18.7464C18.2735 18.401 15.9921 16.8879 14.5646 14.7246C14.1143 14.0443 13.7481 13.2984 13.4855 12.5047C13.4604 12.4338 13.4372 12.3612 13.4158 12.2868C13.1406 11.3938 12.9941 10.4424 12.9941 9.45557V9.37053C12.9941 8.80712 13.0424 8.25435 13.1353 7.71752C13.1585 7.58641 13.1835 7.45708 13.2103 7.32774C14.1143 3.13587 17.7358 0.00170898 22.0665 0.00170898H38.832V7.10805H22.154C21.7878 7.10805 21.4394 7.18601 21.1214 7.32597C20.8963 7.42519 20.6872 7.55806 20.4997 7.71575C20.4318 7.77244 20.3657 7.83445 20.3049 7.89823C19.8333 8.38723 19.5402 9.06225 19.5402 9.80637C19.5402 10.3467 19.6939 10.8481 19.9565 11.2698C20.237 11.718 20.6426 12.0742 21.1214 12.2868C21.4394 12.4285 21.7878 12.5047 22.154 12.5047H41.9246C45.1333 12.5047 47.7346 15.1906 47.7346 18.5055C47.7346 18.587 47.7328 18.6667 47.7292 18.7482H47.7346V23.5371H65.6167V23.5354Z" fill="url(#paint1_linear_346_410)"/>
<path d="M38.6904 23.5212V30.8473H12.8525L21.3907 23.5212H38.6904Z" fill="url(#paint2_linear_346_410)"/>
<path d="M14.661 35.5157V34.958C14.7621 35.0428 14.8719 35.1067 14.9904 35.1497C15.109 35.1915 15.2286 35.2125 15.3495 35.2125C15.4204 35.2125 15.4819 35.2061 15.5342 35.1933C15.5877 35.1805 15.6318 35.1631 15.6667 35.141C15.7027 35.1178 15.7294 35.091 15.7469 35.0608C15.7643 35.0294 15.773 34.9958 15.773 34.9597C15.773 34.9109 15.7591 34.8674 15.7312 34.829C15.7033 34.7907 15.6649 34.7552 15.6161 34.7227C15.5685 34.6902 15.5116 34.6588 15.4453 34.6286C15.3791 34.5984 15.3076 34.5676 15.231 34.5362C15.0358 34.4549 14.8899 34.3555 14.7935 34.2382C14.6982 34.1208 14.6506 33.9791 14.6506 33.8129C14.6506 33.6828 14.6767 33.5712 14.729 33.4783C14.7813 33.3842 14.8522 33.3069 14.9416 33.2465C15.0323 33.1861 15.1368 33.1419 15.2554 33.114C15.3739 33.085 15.4994 33.0704 15.6318 33.0704C15.762 33.0704 15.877 33.0786 15.9769 33.0948C16.078 33.11 16.171 33.1338 16.2558 33.1663V33.6874C16.2139 33.6584 16.1681 33.6328 16.1181 33.6107C16.0693 33.5887 16.0187 33.5707 15.9665 33.5567C15.9142 33.5416 15.8619 33.5306 15.8096 33.5236C15.7585 33.5166 15.7097 33.5131 15.6632 33.5131C15.5993 33.5131 15.5412 33.5195 15.4889 33.5323C15.4366 33.5439 15.3925 33.5608 15.3564 33.5829C15.3204 33.6049 15.2925 33.6317 15.2728 33.663C15.253 33.6932 15.2432 33.7275 15.2432 33.7659C15.2432 33.8077 15.2542 33.8455 15.2763 33.8791C15.2984 33.9117 15.3297 33.9431 15.3704 33.9733C15.4111 34.0023 15.4604 34.0314 15.5185 34.0604C15.5766 34.0883 15.6423 34.1173 15.7155 34.1476C15.8154 34.1894 15.9049 34.2341 15.9839 34.2818C16.0641 34.3282 16.1326 34.3811 16.1895 34.4404C16.2465 34.4996 16.2901 34.5676 16.3203 34.6443C16.3505 34.7198 16.3656 34.8081 16.3656 34.9092C16.3656 35.0486 16.3389 35.166 16.2854 35.2613C16.2331 35.3554 16.1617 35.4321 16.071 35.4913C15.9804 35.5494 15.8747 35.5912 15.7538 35.6168C15.6341 35.6424 15.5075 35.6551 15.3739 35.6551C15.2368 35.6551 15.1061 35.6435 14.9817 35.6203C14.8586 35.597 14.7517 35.5622 14.661 35.5157ZM18.8544 35.6116H18.1433L17.4148 34.5258C17.4008 34.5048 17.3788 34.4589 17.3486 34.3881H17.3398V35.6116H16.7769V33.1123H17.3398V34.294H17.3486C17.3625 34.2614 17.3857 34.2149 17.4183 34.1545L18.1085 33.1123H18.7795L17.908 34.3044L18.8544 35.6116ZM20.979 33.1123L20.1651 34.7227V35.6116H19.6021V34.7332L18.8091 33.1123H19.4522L19.8548 34.0447C19.8618 34.0621 19.881 34.1301 19.9123 34.2486H19.9193C19.9344 34.165 19.9524 34.0993 19.9733 34.0517L20.3829 33.1123H20.979ZM23.3598 35.6116H22.7132L22.3245 34.9684C22.2954 34.9196 22.2676 34.8761 22.2408 34.8377C22.2141 34.7994 22.1868 34.7669 22.1589 34.7401C22.1322 34.7122 22.1037 34.6913 22.0735 34.6774C22.0445 34.6623 22.0125 34.6547 21.9777 34.6547H21.826V35.6116H21.2631V33.1123H22.1554C22.762 33.1123 23.0652 33.3389 23.0652 33.792C23.0652 33.8791 23.0519 33.9599 23.0251 34.0343C22.9984 34.1075 22.9606 34.1737 22.9118 34.233C22.863 34.2922 22.8038 34.3433 22.7341 34.3863C22.6655 34.4293 22.5888 34.463 22.504 34.4874V34.4944C22.5412 34.506 22.5772 34.5252 22.6121 34.5519C22.6469 34.5775 22.6806 34.6077 22.7132 34.6425C22.7457 34.6774 22.7765 34.7151 22.8055 34.7558C22.8357 34.7953 22.863 34.8342 22.8874 34.8726L23.3598 35.6116ZM21.826 33.5341V34.2295H22.07C22.1909 34.2295 22.2879 34.1946 22.3611 34.1249C22.4355 34.054 22.4726 33.9663 22.4726 33.8617C22.4726 33.6433 22.3419 33.5341 22.0805 33.5341H21.826ZM24.6164 35.6551C24.2585 35.6551 23.9669 35.539 23.7415 35.3066C23.516 35.073 23.4033 34.7692 23.4033 34.395C23.4033 34 23.5178 33.6805 23.7467 33.4365C23.9756 33.1925 24.2788 33.0704 24.6565 33.0704C25.0132 33.0704 25.3013 33.1872 25.5209 33.4208C25.7417 33.6543 25.8521 33.9622 25.8521 34.3445C25.8521 34.7372 25.7376 35.0538 25.5087 35.2944C25.281 35.5349 24.9836 35.6551 24.6164 35.6551ZM24.6408 33.555C24.4433 33.555 24.2864 33.6293 24.1702 33.7781C24.054 33.9256 23.9959 34.1214 23.9959 34.3654C23.9959 34.6129 24.054 34.8087 24.1702 34.9528C24.2864 35.0968 24.4386 35.1689 24.6268 35.1689C24.8209 35.1689 24.9748 35.0992 25.0887 34.9597C25.2026 34.8191 25.2595 34.6245 25.2595 34.3759C25.2595 34.1168 25.2043 33.9152 25.0939 33.7711C24.9836 33.627 24.8325 33.555 24.6408 33.555ZM28.0603 35.5227C27.8779 35.611 27.6397 35.6551 27.3457 35.6551C26.9623 35.6551 26.6608 35.5424 26.4412 35.317C26.2216 35.0916 26.1118 34.7913 26.1118 34.416C26.1118 34.0163 26.2349 33.6921 26.4813 33.4434C26.7288 33.1948 27.0495 33.0704 27.4433 33.0704C27.6873 33.0704 27.893 33.1012 28.0603 33.1628V33.7049C27.893 33.6049 27.7025 33.555 27.4887 33.555C27.254 33.555 27.0646 33.6288 26.9205 33.7763C26.7764 33.9239 26.7044 34.1237 26.7044 34.3759C26.7044 34.6175 26.7723 34.8104 26.9083 34.9545C27.0442 35.0974 27.2272 35.1689 27.4573 35.1689C27.6769 35.1689 27.8779 35.1154 28.0603 35.0085V35.5227ZM30.5736 35.6116H29.8625L29.1339 34.5258C29.12 34.5048 29.0979 34.4589 29.0677 34.3881H29.059V35.6116H28.496V33.1123H29.059V34.294H29.0677C29.0817 34.2614 29.1049 34.2149 29.1374 34.1545L29.8276 33.1123H30.4986L29.6272 34.3044L30.5736 35.6116ZM32.313 35.6116H30.8141V33.1123H32.2554V33.5707H31.377V34.1266H32.1944V34.5833H31.377V35.1549H32.313V35.6116ZM34.5003 33.5707H33.7874V35.6116H33.2227V33.5707H32.5134V33.1123H34.5003V33.5707ZM36.3861 35.6116H35.8231V33.1123H36.3861V35.6116ZM39.2043 35.6116H38.6361L37.6061 34.0412C37.5457 33.9494 37.5038 33.8803 37.4806 33.8338H37.4736C37.4829 33.9221 37.4876 34.0569 37.4876 34.2382V35.6116H36.956V33.1123H37.5625L38.5542 34.6338C38.5995 34.7024 38.6414 34.7703 38.6797 34.8377H38.6867C38.6774 34.7796 38.6727 34.6652 38.6727 34.4944V33.1123H39.2043V35.6116ZM41.2208 33.5707H40.3389V34.1842H41.1494V34.6408H40.3389V35.6116H39.776V33.1123H41.2208V33.5707ZM43.6713 34.5292C43.6713 35.2798 43.3216 35.6551 42.6221 35.6551C41.9436 35.6551 41.6043 35.2886 41.6043 34.5554V33.1123H42.169V34.5624C42.169 34.9667 42.327 35.1689 42.643 35.1689C42.9533 35.1689 43.1084 34.9737 43.1084 34.5833V33.1123H43.6713V34.5292ZM45.7053 35.6116H44.2169V33.1123H44.7798V35.1549H45.7053V35.6116ZM47.5423 35.6116H46.0434V33.1123H47.4848V33.5707H46.6063V34.1266H47.4238V34.5833H46.6063V35.1549H47.5423V35.6116ZM50.1915 35.6116H49.6233L48.5932 34.0412C48.5328 33.9494 48.491 33.8803 48.4677 33.8338H48.4608C48.4701 33.9221 48.4747 34.0569 48.4747 34.2382V35.6116H47.9431V33.1123H48.5497L49.5414 34.6338C49.5867 34.7024 49.6285 34.7703 49.6668 34.8377H49.6738C49.6645 34.7796 49.6599 34.6652 49.6599 34.4944V33.1123H50.1915V35.6116ZM52.5548 35.5227C52.3724 35.611 52.1342 35.6551 51.8402 35.6551C51.4568 35.6551 51.1553 35.5424 50.9357 35.317C50.7161 35.0916 50.6063 34.7913 50.6063 34.416C50.6063 34.0163 50.7294 33.6921 50.9758 33.4434C51.2232 33.1948 51.5439 33.0704 51.9378 33.0704C52.1818 33.0704 52.3875 33.1012 52.5548 33.1628V33.7049C52.3875 33.6049 52.1969 33.555 51.9831 33.555C51.7484 33.555 51.559 33.6288 51.415 33.7763C51.2709 33.9239 51.1988 34.1237 51.1988 34.3759C51.1988 34.6175 51.2668 34.8104 51.4028 34.9545C51.5387 35.0974 51.7217 35.1689 51.9518 35.1689C52.1714 35.1689 52.3724 35.1154 52.5548 35.0085V35.5227ZM54.4894 35.6116H52.9905V33.1123H54.4319V33.5707H53.5535V34.1266H54.3709V34.5833H53.5535V35.1549H54.4894V35.6116ZM57.9577 33.1123L57.0968 35.6116H56.4589L55.6083 33.1123H56.2149L56.736 34.8517C56.7639 34.9458 56.7807 35.0289 56.7865 35.1009H56.797C56.8051 35.0231 56.8231 34.9377 56.851 34.8447L57.3686 33.1123H57.9577ZM58.8205 35.6116H58.2575V33.1123H58.8205V35.6116ZM59.2754 35.5157V34.958C59.3765 35.0428 59.4863 35.1067 59.6048 35.1497C59.7233 35.1915 59.843 35.2125 59.9638 35.2125C60.0347 35.2125 60.0963 35.2061 60.1485 35.1933C60.202 35.1805 60.2461 35.1631 60.281 35.141C60.317 35.1178 60.3438 35.091 60.3612 35.0608C60.3786 35.0294 60.3873 34.9958 60.3873 34.9597C60.3873 34.9109 60.3734 34.8674 60.3455 34.829C60.3176 34.7907 60.2793 34.7552 60.2305 34.7227C60.1828 34.6902 60.1259 34.6588 60.0597 34.6286C59.9934 34.5984 59.922 34.5676 59.8453 34.5362C59.6501 34.4549 59.5043 34.3555 59.4078 34.2382C59.3125 34.1208 59.2649 33.9791 59.2649 33.8129C59.2649 33.6828 59.291 33.5712 59.3433 33.4783C59.3956 33.3842 59.4665 33.3069 59.556 33.2465C59.6466 33.1861 59.7512 33.1419 59.8697 33.114C59.9882 33.085 60.1137 33.0704 60.2461 33.0704C60.3763 33.0704 60.4913 33.0786 60.5912 33.0948C60.6923 33.11 60.7853 33.1338 60.8701 33.1663V33.6874C60.8283 33.6584 60.7824 33.6328 60.7324 33.6107C60.6836 33.5887 60.6331 33.5707 60.5808 33.5567C60.5285 33.5416 60.4762 33.5306 60.4239 33.5236C60.3728 33.5166 60.324 33.5131 60.2775 33.5131C60.2136 33.5131 60.1555 33.5195 60.1032 33.5323C60.0509 33.5439 60.0068 33.5608 59.9708 33.5829C59.9348 33.6049 59.9069 33.6317 59.8871 33.663C59.8674 33.6932 59.8575 33.7275 59.8575 33.7659C59.8575 33.8077 59.8685 33.8455 59.8906 33.8791C59.9127 33.9117 59.944 33.9431 59.9847 33.9733C60.0254 34.0023 60.0748 34.0314 60.1329 34.0604C60.191 34.0883 60.2566 34.1173 60.3298 34.1476C60.4297 34.1894 60.5192 34.2341 60.5982 34.2818C60.6784 34.3282 60.7469 34.3811 60.8039 34.4404C60.8608 34.4996 60.9044 34.5676 60.9346 34.6443C60.9648 34.7198 60.9799 34.8081 60.9799 34.9092C60.9799 35.0486 60.9532 35.166 60.8997 35.2613C60.8474 35.3554 60.776 35.4321 60.6854 35.4913C60.5947 35.5494 60.489 35.5912 60.3682 35.6168C60.2485 35.6424 60.1218 35.6551 59.9882 35.6551C59.8511 35.6551 59.7204 35.6435 59.5961 35.6203C59.4729 35.597 59.366 35.5622 59.2754 35.5157ZM61.9542 35.6116H61.3912V33.1123H61.9542V35.6116ZM63.5803 35.6551C63.2224 35.6551 62.9308 35.539 62.7054 35.3066C62.4799 35.073 62.3672 34.7692 62.3672 34.395C62.3672 34 62.4817 33.6805 62.7106 33.4365C62.9395 33.1925 63.2427 33.0704 63.6204 33.0704C63.9771 33.0704 64.2652 33.1872 64.4848 33.4208C64.7056 33.6543 64.816 33.9622 64.816 34.3445C64.816 34.7372 64.7015 35.0538 64.4726 35.2944C64.2449 35.5349 63.9475 35.6551 63.5803 35.6551ZM63.6047 33.555C63.4072 33.555 63.2503 33.6293 63.1341 33.7781C63.0179 33.9256 62.9598 34.1214 62.9598 34.3654C62.9598 34.6129 63.0179 34.8087 63.1341 34.9528C63.2503 35.0968 63.4025 35.1689 63.5907 35.1689C63.7848 35.1689 63.9387 35.0992 64.0526 34.9597C64.1665 34.8191 64.2234 34.6245 64.2234 34.3759C64.2234 34.1168 64.1682 33.9152 64.0578 33.7711C63.9475 33.627 63.7964 33.555 63.6047 33.555ZM67.4809 35.6116H66.9127L65.8826 34.0412C65.8222 33.9494 65.7804 33.8803 65.7571 33.8338H65.7502C65.7595 33.9221 65.7641 34.0569 65.7641 34.2382V35.6116H65.2325V33.1123H65.8391L66.8308 34.6338C66.8761 34.7024 66.9179 34.7703 66.9563 34.8377H66.9632C66.9539 34.7796 66.9493 34.6652 66.9493 34.4944V33.1123H67.4809V35.6116ZM70.7941 33.5707H70.0812V35.6116H69.5165V33.5707H68.8072V33.1123H70.7941V33.5707ZM72.0542 35.6551C71.6963 35.6551 71.4047 35.539 71.1793 35.3066C70.9538 35.073 70.8411 34.7692 70.8411 34.395C70.8411 34 70.9556 33.6805 71.1845 33.4365C71.4134 33.1925 71.7166 33.0704 72.0943 33.0704C72.451 33.0704 72.7391 33.1872 72.9587 33.4208C73.1795 33.6543 73.2899 33.9622 73.2899 34.3445C73.2899 34.7372 73.1754 35.0538 72.9465 35.2944C72.7188 35.5349 72.4214 35.6551 72.0542 35.6551ZM72.0786 33.555C71.8811 33.555 71.7242 33.6293 71.608 33.7781C71.4918 33.9256 71.4337 34.1214 71.4337 34.3654C71.4337 34.6129 71.4918 34.8087 71.608 34.9528C71.7242 35.0968 71.8764 35.1689 72.0646 35.1689C72.2587 35.1689 72.4126 35.0992 72.5265 34.9597C72.6404 34.8191 72.6973 34.6245 72.6973 34.3759C72.6973 34.1168 72.6421 33.9152 72.5317 33.7711C72.4214 33.627 72.2703 33.555 72.0786 33.555ZM76.7739 33.1123L75.9129 35.6116H75.275L74.4245 33.1123H75.031L75.5522 34.8517C75.58 34.9458 75.5969 35.0289 75.6027 35.1009H75.6132C75.6213 35.0231 75.6393 34.9377 75.6672 34.8447L76.1848 33.1123H76.7739ZM77.6366 35.6116H77.0737V33.1123H77.6366V35.6116ZM80.3033 35.6116H79.6566L79.268 34.9684C79.2389 34.9196 79.211 34.8761 79.1843 34.8377C79.1576 34.7994 79.1303 34.7669 79.1024 34.7401C79.0757 34.7122 79.0472 34.6913 79.017 34.6774C78.988 34.6623 78.956 34.6547 78.9211 34.6547H78.7695V35.6116H78.2066V33.1123H79.0989C79.7054 33.1123 80.0087 33.3389 80.0087 33.792C80.0087 33.8791 79.9953 33.9599 79.9686 34.0343C79.9419 34.1075 79.9041 34.1737 79.8553 34.233C79.8065 34.2922 79.7473 34.3433 79.6776 34.3863C79.609 34.4293 79.5323 34.463 79.4475 34.4874V34.4944C79.4847 34.506 79.5207 34.5252 79.5556 34.5519C79.5904 34.5775 79.6241 34.6077 79.6566 34.6425C79.6892 34.6774 79.72 34.7151 79.749 34.7558C79.7792 34.7953 79.8065 34.8342 79.8309 34.8726L80.3033 35.6116ZM78.7695 33.5341V34.2295H79.0135C79.1344 34.2295 79.2314 34.1946 79.3046 34.1249C79.3789 34.054 79.4161 33.9663 79.4161 33.8617C79.4161 33.6433 79.2854 33.5341 79.024 33.5341H78.7695ZM82.7363 35.6116H82.1228L81.945 35.0556H81.0562L80.8801 35.6116H80.2701L81.1799 33.1123H81.8474L82.7363 35.6116ZM81.8161 34.6234L81.5477 33.7833C81.5279 33.7205 81.514 33.6456 81.5058 33.5585H81.4919C81.4861 33.6317 81.4716 33.7043 81.4483 33.7763L81.1764 34.6234H81.8161ZM84.5367 35.6116H83.0483V33.1123H83.6112V35.1549H84.5367V35.6116ZM85.4378 35.6116H84.8748V33.1123H85.4378V35.6116ZM87.7628 33.5707H87.05V35.6116H86.4853V33.5707H85.7759V33.1123H87.7628V33.5707ZM90.0564 33.1123L89.2425 34.7227V35.6116H88.6795V34.7332L87.8865 33.1123H88.5297L88.9323 34.0447C88.9392 34.0621 88.9584 34.1301 88.9898 34.2486H88.9968C89.0119 34.165 89.0299 34.0993 89.0508 34.0517L89.4604 33.1123H90.0564Z" fill="#61DEA2"/>
<defs>
<linearGradient id="paint0_linear_346_410" x1="13.8452" y1="-1.12931" x2="105.482" y2="23.9441" gradientUnits="userSpaceOnUse">
<stop stop-color="#61DEA2"/>
<stop offset="1" stop-color="#2954A3"/>
</linearGradient>
<linearGradient id="paint1_linear_346_410" x1="11.5307" y1="7.91703" x2="103.258" y2="33.0152" gradientUnits="userSpaceOnUse">
<stop stop-color="#61DEA2"/>
<stop offset="1" stop-color="#2954A3"/>
</linearGradient>
<linearGradient id="paint2_linear_346_410" x1="7.84319" y1="22.3606" x2="99.1652" y2="47.3478" gradientUnits="userSpaceOnUse">
<stop stop-color="#61DEA2"/>
<stop offset="1" stop-color="#2954A3"/>
</linearGradient>
</defs>
</svg>
